# Blender v2.81 (sub 16) OBJ File: 'GGJ2020.blend'
# www.blender.org
mtllib Subwayshovel.mtl
o Subwayshovel
v -0.400000 0.000000 -1.400000
v -0.200000 0.000000 -1.400000
v -0.200000 0.000000 -1.300000
v -0.200000 0.000000 -2.200001
v -0.100000 0.200000 2.500000
v -0.100000 0.000000 -1.300000
v -0.100000 0.200000 -2.300001
v 0.200000 0.200000 -1.400000
v 0.200000 0.100000 -1.500000
v 0.300000 0.100000 -1.500000
v -0.200000 0.100000 -1.500000
v -0.200000 0.100000 -2.000000
v -0.200000 0.200000 -1.900000
v -0.200000 0.200000 -2.000000
v 0.100000 0.200000 2.500000
v 0.100000 0.200000 -1.300000
v 0.100000 0.200000 -2.300001
v 0.200000 0.000000 -1.300000
v 0.200000 0.000000 -1.400000
v 0.200000 0.000000 -2.100000
v 0.300000 0.000000 -2.100000
v 0.300000 0.200000 -2.100000
v 0.400000 0.200000 -1.400000
v 0.100000 -0.000000 2.500000
v -0.200000 0.200000 -1.300000
v -0.400000 0.200000 -1.400000
v -0.200000 0.200000 -1.400000
v 0.400000 0.000000 -1.400000
v -0.300000 0.200000 -1.900000
v -0.300000 0.100000 -1.900000
v 0.300000 0.100000 -1.900000
v 0.200000 0.200000 -1.900000
v -0.100000 0.100000 -2.000000
v 0.100000 0.200000 -2.000000
v -0.100000 0.100000 -2.100000
v -0.200000 0.100000 -1.400000
v -0.200000 0.200000 -1.500000
v 0.200000 0.200000 -1.500000
v 0.300000 0.200000 -1.500000
v -0.400000 0.000000 -2.000000
v -0.400000 0.200000 -2.000000
v -0.300000 0.200000 -2.000000
v 0.300000 0.000000 -2.000000
v 0.400000 0.200000 -2.000000
v -0.200000 0.000000 -2.100000
v -0.200000 0.200000 -2.100000
v -0.200000 0.200000 -2.200001
v -0.100000 0.000000 -2.200001
v -0.100000 0.200000 -2.200001
v 0.100000 0.200000 -2.200001
v -0.100000 0.000000 -2.300001
v -0.100000 -0.000000 2.500000
v 0.100000 0.000000 -1.300000
v -0.300000 0.000000 -2.000000
v 0.400000 0.000000 -2.000000
v -0.300000 0.000000 -2.100000
v 0.100000 0.000000 -2.200001
v 0.200000 0.000000 -2.200001
v 0.100000 0.000000 -2.300001
v 0.200000 0.100000 -1.400000
v -0.300000 0.100000 -1.500000
v -0.200000 0.100000 -1.900000
v 0.200000 0.100000 -1.900000
v 0.100000 0.100000 -2.000000
v 0.200000 0.100000 -2.000000
v 0.100000 0.100000 -2.100000
v -0.100000 0.200000 -1.300000
v 0.200000 0.200000 -1.300000
v -0.300000 0.200000 -1.500000
v 0.300000 0.200000 -1.900000
v 0.200000 0.200000 -2.000000
v 0.300000 0.200000 -2.000000
v -0.100000 0.200000 -2.000000
v -0.300000 0.200000 -2.100000
v -0.100000 0.200000 -2.100000
v 0.100000 0.200000 -2.100000
v 0.200000 0.200000 -2.100000
v 0.200000 0.200000 -2.200001
vt 0.966797 0.500000
vt 0.966797 0.500000
vt 0.966797 0.500000
vt 0.966797 0.500000
vt 0.966797 0.500000
vt 0.966797 0.500000
vt 0.966797 0.500000
vt 0.966797 0.500000
vt 0.966797 0.500000
vt 0.966797 0.500000
vt 0.966797 0.500000
vt 0.966797 0.500000
vt 0.966797 0.500000
vt 0.966797 0.500000
vt 0.966797 0.500000
vt 0.966797 0.500000
vt 0.767578 0.500000
vt 0.767578 0.500000
vt 0.767578 0.500000
vt 0.767578 0.500000
vt 0.966797 0.500000
vt 0.966797 0.500000
vt 0.966797 0.500000
vt 0.966797 0.500000
vt 0.966797 0.500000
vt 0.966797 0.500000
vt 0.966797 0.500000
vt 0.966797 0.500000
vt 0.966797 0.500000
vt 0.966797 0.500000
vt 0.966797 0.500000
vt 0.966797 0.500000
vt 0.966797 0.500000
vt 0.966797 0.500000
vt 0.966797 0.500000
vt 0.966797 0.500000
vt 0.966797 0.500000
vt 0.966797 0.500000
vt 0.966797 0.500000
vt 0.966797 0.500000
vt 0.966797 0.500000
vt 0.966797 0.500000
vt 0.966797 0.500000
vt 0.966797 0.500000
vt 0.966797 0.500000
vt 0.966797 0.500000
vt 0.966797 0.500000
vt 0.966797 0.500000
vt 0.966797 0.500000
vt 0.966797 0.500000
vt 0.966797 0.500000
vt 0.966797 0.500000
vt 0.966797 0.500000
vt 0.966797 0.500000
vt 0.966797 0.500000
vt 0.767578 0.500000
vt 0.767578 0.500000
vt 0.767578 0.500000
vt 0.767578 0.500000
vt 0.966797 0.500000
vt 0.966797 0.500000
vt 0.966797 0.500000
vt 0.966797 0.500000
vt 0.966797 0.500000
vt 0.966797 0.500000
vt 0.966797 0.500000
vt 0.966797 0.500000
vt 0.966797 0.500000
vt 0.966797 0.500000
vt 0.966797 0.500000
vt 0.966797 0.500000
vt 0.966797 0.500000
vt 0.966797 0.500000
vt 0.966797 0.500000
vt 0.966797 0.500000
vt 0.966797 0.500000
vt 0.966797 0.500000
vt 0.966797 0.500000
vt 0.966797 0.500000
vt 0.966797 0.500000
vt 0.966797 0.500000
vt 0.966797 0.500000
vn -1.0000 0.0000 0.0000
vn 1.0000 0.0000 0.0000
vn 0.0000 0.0000 1.0000
vn 0.0000 0.0000 -1.0000
vn 0.0000 -1.0000 -0.0000
vn 0.0000 1.0000 0.0000
usemtl palette.004
s off
f 26/1/1 40/2/1 1/3/1
f 41/4/1 40/2/1 26/1/1
f 42/5/1 56/6/1 54/7/1
f 74/8/1 56/6/1 42/5/1
f 25/9/1 2/10/1 3/11/1
f 27/12/1 2/10/1 25/9/1
f 46/13/1 4/14/1 45/15/1
f 47/16/1 4/14/1 46/13/1
f 5/17/1 6/18/1 52/19/1
f 67/20/1 6/18/1 5/17/1
f 49/21/1 51/22/1 48/23/1
f 7/24/1 51/22/1 49/21/1
f 34/25/1 66/26/1 64/27/1
f 76/28/1 66/26/1 34/25/1
f 8/29/1 9/30/1 60/31/1
f 38/32/1 9/30/1 8/29/1
f 32/33/1 65/34/1 63/35/1
f 71/36/1 65/34/1 32/33/1
f 39/37/1 31/38/1 10/39/1
f 70/40/1 31/38/1 39/37/1
f 61/41/2 30/42/2 69/43/2
f 69/43/2 30/42/2 29/44/2
f 36/45/2 11/46/2 27/12/2
f 27/12/2 11/46/2 37/47/2
f 62/48/2 12/49/2 13/50/2
f 13/50/2 12/49/2 14/51/2
f 33/52/2 35/53/2 73/54/2
f 73/54/2 35/53/2 75/55/2
f 24/56/2 53/57/2 15/58/2
f 15/58/2 53/57/2 16/59/2
f 57/60/2 59/61/2 50/62/2
f 50/62/2 59/61/2 17/63/2
f 18/64/2 19/65/2 68/66/2
f 68/66/2 19/65/2 8/29/2
f 20/67/2 58/68/2 77/69/2
f 77/69/2 58/68/2 78/70/2
f 43/71/2 21/72/2 72/73/2
f 72/73/2 21/72/2 22/74/2
f 28/75/2 55/76/2 23/77/2
f 23/77/2 55/76/2 44/78/2
f 24/56/3 5/17/3 52/19/3
f 15/58/3 5/17/3 24/56/3
f 6/79/3 25/9/3 3/11/3
f 67/80/3 25/9/3 6/79/3
f 18/64/3 16/81/3 53/82/3
f 68/66/3 16/81/3 18/64/3
f 2/10/3 26/1/3 1/3/3
f 27/12/3 26/1/3 2/10/3
f 28/75/3 8/29/3 19/65/3
f 23/77/3 8/29/3 28/75/3
f 62/48/3 29/44/3 30/42/3
f 13/50/3 29/44/3 62/48/3
f 31/38/3 32/33/3 63/35/3
f 70/40/3 32/33/3 31/38/3
f 33/52/3 14/51/3 12/49/3
f 73/54/3 14/51/3 33/52/3
f 65/34/3 34/25/3 64/27/3
f 71/36/3 34/25/3 65/34/3
f 66/26/3 75/55/3 35/53/3
f 76/28/3 75/55/3 66/26/3
f 36/45/4 27/12/4 60/31/4
f 60/31/4 27/12/4 8/29/4
f 61/41/4 69/43/4 11/46/4
f 11/46/4 69/43/4 37/47/4
f 9/30/4 38/32/4 10/39/4
f 10/39/4 38/32/4 39/37/4
f 40/2/4 41/4/4 54/7/4
f 54/7/4 41/4/4 42/5/4
f 43/71/4 72/73/4 55/76/4
f 55/76/4 72/73/4 44/78/4
f 56/6/4 74/8/4 45/15/4
f 45/15/4 74/8/4 46/13/4
f 20/67/4 77/69/4 21/72/4
f 21/72/4 77/69/4 22/74/4
f 4/14/4 47/16/4 48/23/4
f 48/23/4 47/16/4 49/21/4
f 57/60/4 50/62/4 58/68/4
f 58/68/4 50/62/4 78/70/4
f 51/22/4 7/24/4 59/61/4
f 59/61/4 7/24/4 17/63/4
f 6/18/5 24/56/5 52/19/5
f 53/57/5 24/56/5 6/18/5
f 2/10/5 6/79/5 3/11/5
f 2/10/5 18/64/5 53/82/5
f 2/10/5 53/82/5 6/79/5
f 19/65/5 18/64/5 2/10/5
f 40/2/5 2/10/5 1/3/5
f 40/2/5 28/75/5 19/65/5
f 40/2/5 19/65/5 2/10/5
f 54/7/5 28/75/5 40/2/5
f 43/71/5 28/75/5 54/7/5
f 55/76/5 28/75/5 43/71/5
f 56/6/5 43/71/5 54/7/5
f 45/15/5 43/71/5 56/6/5
f 20/67/5 43/71/5 45/15/5
f 21/72/5 43/71/5 20/67/5
f 4/14/5 20/67/5 45/15/5
f 48/23/5 20/67/5 4/14/5
f 57/60/5 20/67/5 48/23/5
f 58/68/5 20/67/5 57/60/5
f 51/22/5 57/60/5 48/23/5
f 59/61/5 57/60/5 51/22/5
f 36/45/6 60/31/6 11/46/6
f 11/46/6 60/31/6 9/30/6
f 61/41/6 11/46/6 30/42/6
f 9/30/6 10/39/6 30/42/6
f 11/46/6 9/30/6 30/42/6
f 30/42/6 10/39/6 62/48/6
f 62/48/6 10/39/6 63/35/6
f 63/35/6 10/39/6 31/38/6
f 62/48/6 63/35/6 12/49/6
f 12/49/6 63/35/6 33/52/6
f 33/52/6 63/35/6 64/27/6
f 64/27/6 63/35/6 65/34/6
f 33/52/6 64/27/6 35/53/6
f 35/53/6 64/27/6 66/26/6
f 5/17/6 15/58/6 67/20/6
f 67/20/6 15/58/6 16/59/6
f 25/9/6 67/80/6 27/12/6
f 16/81/6 68/66/6 27/12/6
f 67/80/6 16/81/6 27/12/6
f 27/12/6 68/66/6 8/29/6
f 26/1/6 27/12/6 69/43/6
f 69/43/6 27/12/6 37/47/6
f 8/29/6 23/77/6 38/32/6
f 38/32/6 23/77/6 39/37/6
f 26/1/6 69/43/6 29/44/6
f 39/37/6 23/77/6 70/40/6
f 29/44/6 13/50/6 41/4/6
f 26/1/6 29/44/6 41/4/6
f 41/4/6 13/50/6 42/5/6
f 42/5/6 13/50/6 14/51/6
f 32/33/6 70/40/6 71/36/6
f 70/40/6 23/77/6 72/73/6
f 71/36/6 70/40/6 72/73/6
f 72/73/6 23/77/6 44/78/6
f 14/51/6 73/54/6 74/8/6
f 42/5/6 14/51/6 74/8/6
f 74/8/6 73/54/6 46/13/6
f 46/13/6 73/54/6 75/55/6
f 34/25/6 71/36/6 76/28/6
f 71/36/6 72/73/6 76/28/6
f 76/28/6 72/73/6 77/69/6
f 77/69/6 72/73/6 22/74/6
f 46/13/6 75/55/6 47/16/6
f 76/28/6 77/69/6 47/16/6
f 75/55/6 76/28/6 47/16/6
f 47/16/6 77/69/6 49/21/6
f 49/21/6 77/69/6 50/62/6
f 50/62/6 77/69/6 78/70/6
f 49/21/6 50/62/6 7/24/6
f 7/24/6 50/62/6 17/63/6
