# MagicaVoxel @ Ephtracy

# group
g SubwayTracks

# material
mtllib SubwayTracks.mtl
usemtl palette

# normals
vn -1 0 0
vn 1 0 0
vn 0 0 1
vn 0 0 -1
vn 0 -1 0
vn 0 1 0

# texcoords
vt 0.314453 0.5
vt 0.509766 0.5
vt 0.513672 0.5

# verts
v -25 1 17
v -25 1 13
v -25 1 -13
v -25 1 -17
v -25 2 17
v -25 2 13
v -25 2 -13
v -25 2 -17
v -25 4 17
v -25 4 13
v -25 4 -13
v -25 4 -17
v -15 0 25
v -15 0 -25
v -15 1 25
v -15 1 17
v -15 1 13
v -15 1 -13
v -15 1 -17
v -15 1 -25
v -11 1 21
v -11 1 19
v -11 1 -19
v -11 1 -21
v -11 2 21
v -11 2 19
v -11 2 -19
v -11 2 -21
v 5 0 25
v 5 0 -25
v 5 1 25
v 5 1 17
v 5 1 13
v 5 1 -13
v 5 1 -17
v 5 1 -25
v 9 1 21
v 9 1 19
v 9 1 -19
v 9 1 -21
v 9 2 21
v 9 2 19
v 9 2 -19
v 9 2 -21
v -9 1 21
v -9 1 19
v -9 1 -19
v -9 1 -21
v -9 2 21
v -9 2 19
v -9 2 -19
v -9 2 -21
v -5 0 25
v -5 0 -25
v -5 1 25
v -5 1 17
v -5 1 13
v -5 1 -13
v -5 1 -17
v -5 1 -25
v 11 1 21
v 11 1 19
v 11 1 -19
v 11 1 -21
v 11 2 21
v 11 2 19
v 11 2 -19
v 11 2 -21
v 15 0 25
v 15 0 -25
v 15 1 25
v 15 1 17
v 15 1 13
v 15 1 -13
v 15 1 -17
v 15 1 -25
v 25 1 17
v 25 1 13
v 25 1 -13
v 25 1 -17
v 25 2 17
v 25 2 13
v 25 2 -13
v 25 2 -17
v 25 4 17
v 25 4 13
v 25 4 -13
v 25 4 -17
v -15 0 25
v -15 1 25
v -5 0 25
v -5 1 25
v 5 0 25
v 5 1 25
v 15 0 25
v 15 1 25
v -11 1 21
v -11 2 21
v -9 1 21
v -9 2 21
v 9 1 21
v 9 2 21
v 11 1 21
v 11 2 21
v -25 1 17
v -25 2 17
v -25 4 17
v -15 1 17
v -5 1 17
v 5 1 17
v 15 1 17
v 25 1 17
v 25 2 17
v 25 4 17
v -25 1 -13
v -25 2 -13
v -25 4 -13
v -15 1 -13
v -5 1 -13
v 5 1 -13
v 15 1 -13
v 25 1 -13
v 25 2 -13
v 25 4 -13
v -11 1 -19
v -11 2 -19
v -9 1 -19
v -9 2 -19
v 9 1 -19
v 9 2 -19
v 11 1 -19
v 11 2 -19
v -11 1 19
v -11 2 19
v -9 1 19
v -9 2 19
v 9 1 19
v 9 2 19
v 11 1 19
v 11 2 19
v -25 1 13
v -25 2 13
v -25 4 13
v -15 1 13
v -5 1 13
v 5 1 13
v 15 1 13
v 25 1 13
v 25 2 13
v 25 4 13
v -25 1 -17
v -25 2 -17
v -25 4 -17
v -15 1 -17
v -5 1 -17
v 5 1 -17
v 15 1 -17
v 25 1 -17
v 25 2 -17
v 25 4 -17
v -11 1 -21
v -11 2 -21
v -9 1 -21
v -9 2 -21
v 9 1 -21
v 9 2 -21
v 11 1 -21
v 11 2 -21
v -15 0 -25
v -15 1 -25
v -5 0 -25
v -5 1 -25
v 5 0 -25
v 5 1 -25
v 15 0 -25
v 15 1 -25
v -15 0 25
v -5 0 25
v 5 0 25
v 15 0 25
v -15 0 -25
v -5 0 -25
v 5 0 -25
v 15 0 -25
v -25 1 17
v -15 1 17
v -5 1 17
v 5 1 17
v 15 1 17
v 25 1 17
v -25 1 13
v -15 1 13
v -5 1 13
v 5 1 13
v 15 1 13
v 25 1 13
v -25 1 -13
v -15 1 -13
v -5 1 -13
v 5 1 -13
v 15 1 -13
v 25 1 -13
v -25 1 -17
v -15 1 -17
v -5 1 -17
v 5 1 -17
v 15 1 -17
v 25 1 -17
v -15 1 25
v -5 1 25
v 5 1 25
v 15 1 25
v -11 1 21
v -9 1 21
v 9 1 21
v 11 1 21
v -11 1 19
v -9 1 19
v 9 1 19
v 11 1 19
v -15 1 17
v -5 1 17
v 5 1 17
v 15 1 17
v -15 1 13
v -5 1 13
v 5 1 13
v 15 1 13
v -15 1 -13
v -5 1 -13
v 5 1 -13
v 15 1 -13
v -15 1 -17
v -5 1 -17
v 5 1 -17
v 15 1 -17
v -11 1 -19
v -9 1 -19
v 9 1 -19
v 11 1 -19
v -11 1 -21
v -9 1 -21
v 9 1 -21
v 11 1 -21
v -15 1 -25
v -5 1 -25
v 5 1 -25
v 15 1 -25
v -11 2 21
v -9 2 21
v 9 2 21
v 11 2 21
v -11 2 19
v -9 2 19
v 9 2 19
v 11 2 19
v -11 2 -19
v -9 2 -19
v 9 2 -19
v 11 2 -19
v -11 2 -21
v -9 2 -21
v 9 2 -21
v 11 2 -21
v -25 4 17
v 25 4 17
v -25 4 13
v 25 4 13
v -25 4 -13
v 25 4 -13
v -25 4 -17
v 25 4 -17

# faces
f 5/3/1 2/3/1 1/3/1
f 6/3/1 2/3/1 5/3/1
f 7/3/1 4/3/1 3/3/1
f 8/3/1 4/3/1 7/3/1
f 9/2/1 6/2/1 5/2/1
f 10/2/1 6/2/1 9/2/1
f 11/2/1 8/2/1 7/2/1
f 12/2/1 8/2/1 11/2/1
f 15/1/1 14/1/1 13/1/1
f 16/1/1 14/1/1 15/1/1
f 17/1/1 14/1/1 16/1/1
f 18/1/1 14/1/1 17/1/1
f 19/1/1 14/1/1 18/1/1
f 20/1/1 14/1/1 19/1/1
f 25/2/1 22/2/1 21/2/1
f 26/2/1 22/2/1 25/2/1
f 27/2/1 24/2/1 23/2/1
f 28/2/1 24/2/1 27/2/1
f 31/1/1 30/1/1 29/1/1
f 32/1/1 30/1/1 31/1/1
f 33/1/1 30/1/1 32/1/1
f 34/1/1 30/1/1 33/1/1
f 35/1/1 30/1/1 34/1/1
f 36/1/1 30/1/1 35/1/1
f 41/2/1 38/2/1 37/2/1
f 42/2/1 38/2/1 41/2/1
f 43/2/1 40/2/1 39/2/1
f 44/2/1 40/2/1 43/2/1
f 45/2/2 46/2/2 49/2/2
f 49/2/2 46/2/2 50/2/2
f 47/2/2 48/2/2 51/2/2
f 51/2/2 48/2/2 52/2/2
f 53/1/2 54/1/2 55/1/2
f 55/1/2 54/1/2 56/1/2
f 56/1/2 54/1/2 57/1/2
f 57/1/2 54/1/2 58/1/2
f 58/1/2 54/1/2 59/1/2
f 59/1/2 54/1/2 60/1/2
f 61/2/2 62/2/2 65/2/2
f 65/2/2 62/2/2 66/2/2
f 63/2/2 64/2/2 67/2/2
f 67/2/2 64/2/2 68/2/2
f 69/1/2 70/1/2 71/1/2
f 71/1/2 70/1/2 72/1/2
f 72/1/2 70/1/2 73/1/2
f 73/1/2 70/1/2 74/1/2
f 74/1/2 70/1/2 75/1/2
f 75/1/2 70/1/2 76/1/2
f 77/3/2 78/3/2 81/3/2
f 81/3/2 78/3/2 82/3/2
f 79/3/2 80/3/2 83/3/2
f 83/3/2 80/3/2 84/3/2
f 81/2/2 82/2/2 85/2/2
f 85/2/2 82/2/2 86/2/2
f 83/2/2 84/2/2 87/2/2
f 87/2/2 84/2/2 88/2/2
f 91/1/3 90/1/3 89/1/3
f 92/1/3 90/1/3 91/1/3
f 95/1/3 94/1/3 93/1/3
f 96/1/3 94/1/3 95/1/3
f 99/2/3 98/2/3 97/2/3
f 100/2/3 98/2/3 99/2/3
f 103/2/3 102/2/3 101/2/3
f 104/2/3 102/2/3 103/2/3
f 108/3/3 106/3/3 105/3/3
f 109/3/3 106/3/3 108/3/3
f 110/3/3 106/3/3 109/3/3
f 111/3/3 106/3/3 110/3/3
f 112/3/3 106/3/3 111/3/3
f 113/2/3 107/2/3 106/2/3
f 113/3/3 106/3/3 112/3/3
f 114/2/3 107/2/3 113/2/3
f 118/3/3 116/3/3 115/3/3
f 119/3/3 116/3/3 118/3/3
f 120/3/3 116/3/3 119/3/3
f 121/3/3 116/3/3 120/3/3
f 122/3/3 116/3/3 121/3/3
f 123/2/3 117/2/3 116/2/3
f 123/3/3 116/3/3 122/3/3
f 124/2/3 117/2/3 123/2/3
f 127/2/3 126/2/3 125/2/3
f 128/2/3 126/2/3 127/2/3
f 131/2/3 130/2/3 129/2/3
f 132/2/3 130/2/3 131/2/3
f 133/2/4 134/2/4 135/2/4
f 135/2/4 134/2/4 136/2/4
f 137/2/4 138/2/4 139/2/4
f 139/2/4 138/2/4 140/2/4
f 141/3/4 142/3/4 144/3/4
f 144/3/4 142/3/4 145/3/4
f 145/3/4 142/3/4 146/3/4
f 146/3/4 142/3/4 147/3/4
f 147/3/4 142/3/4 148/3/4
f 142/2/4 143/2/4 149/2/4
f 148/3/4 142/3/4 149/3/4
f 149/2/4 143/2/4 150/2/4
f 151/3/4 152/3/4 154/3/4
f 154/3/4 152/3/4 155/3/4
f 155/3/4 152/3/4 156/3/4
f 156/3/4 152/3/4 157/3/4
f 157/3/4 152/3/4 158/3/4
f 152/2/4 153/2/4 159/2/4
f 158/3/4 152/3/4 159/3/4
f 159/2/4 153/2/4 160/2/4
f 161/2/4 162/2/4 163/2/4
f 163/2/4 162/2/4 164/2/4
f 165/2/4 166/2/4 167/2/4
f 167/2/4 166/2/4 168/2/4
f 169/1/4 170/1/4 171/1/4
f 171/1/4 170/1/4 172/1/4
f 173/1/4 174/1/4 175/1/4
f 175/1/4 174/1/4 176/1/4
f 181/1/5 178/1/5 177/1/5
f 182/1/5 178/1/5 181/1/5
f 183/1/5 180/1/5 179/1/5
f 184/1/5 180/1/5 183/1/5
f 191/3/5 186/3/5 185/3/5
f 192/3/5 186/3/5 191/3/5
f 193/3/5 188/3/5 187/3/5
f 194/3/5 188/3/5 193/3/5
f 195/3/5 190/3/5 189/3/5
f 196/3/5 190/3/5 195/3/5
f 203/3/5 198/3/5 197/3/5
f 204/3/5 198/3/5 203/3/5
f 205/3/5 200/3/5 199/3/5
f 206/3/5 200/3/5 205/3/5
f 207/3/5 202/3/5 201/3/5
f 208/3/5 202/3/5 207/3/5
f 209/1/6 210/1/6 213/1/6
f 213/1/6 210/1/6 214/1/6
f 211/1/6 212/1/6 215/1/6
f 215/1/6 212/1/6 216/1/6
f 209/1/6 213/1/6 217/1/6
f 214/1/6 210/1/6 218/1/6
f 211/1/6 215/1/6 219/1/6
f 216/1/6 212/1/6 220/1/6
f 209/1/6 217/1/6 221/1/6
f 217/1/6 218/1/6 221/1/6
f 218/1/6 210/1/6 222/1/6
f 221/1/6 218/1/6 222/1/6
f 219/1/6 220/1/6 223/1/6
f 211/1/6 219/1/6 223/1/6
f 220/1/6 212/1/6 224/1/6
f 223/1/6 220/1/6 224/1/6
f 225/1/6 226/1/6 229/1/6
f 229/1/6 226/1/6 230/1/6
f 227/1/6 228/1/6 231/1/6
f 231/1/6 228/1/6 232/1/6
f 233/1/6 234/1/6 237/1/6
f 237/1/6 234/1/6 238/1/6
f 235/1/6 236/1/6 239/1/6
f 239/1/6 236/1/6 240/1/6
f 233/1/6 237/1/6 241/1/6
f 238/1/6 234/1/6 242/1/6
f 235/1/6 239/1/6 243/1/6
f 240/1/6 236/1/6 244/1/6
f 233/1/6 241/1/6 245/1/6
f 241/1/6 242/1/6 245/1/6
f 242/1/6 234/1/6 246/1/6
f 245/1/6 242/1/6 246/1/6
f 243/1/6 244/1/6 247/1/6
f 235/1/6 243/1/6 247/1/6
f 244/1/6 236/1/6 248/1/6
f 247/1/6 244/1/6 248/1/6
f 249/2/6 250/2/6 253/2/6
f 253/2/6 250/2/6 254/2/6
f 251/2/6 252/2/6 255/2/6
f 255/2/6 252/2/6 256/2/6
f 257/2/6 258/2/6 261/2/6
f 261/2/6 258/2/6 262/2/6
f 259/2/6 260/2/6 263/2/6
f 263/2/6 260/2/6 264/2/6
f 265/2/6 266/2/6 267/2/6
f 267/2/6 266/2/6 268/2/6
f 269/2/6 270/2/6 271/2/6
f 271/2/6 270/2/6 272/2/6
